<svg xmlns="http://www.w3.org/2000/svg" xmlns:xlink="http://www.w3.org/1999/xlink" width="476" zoomAndPan="magnify" viewBox="0 0 357 202.499994" height="270" preserveAspectRatio="xMidYMid meet" version="1.0"><defs><g/><clipPath id="ff23d256ec"><path d="M 85.832031 38.152344 L 158 38.152344 L 158 73 L 85.832031 73 Z M 85.832031 38.152344 " clip-rule="nonzero"/></clipPath><clipPath id="774fbcd75e"><path d="M 209 78 L 271.371094 78 L 271.371094 88 L 209 88 Z M 209 78 " clip-rule="nonzero"/></clipPath><clipPath id="26d7a724b9"><path d="M 237 88 L 260 88 L 260 93.515625 L 237 93.515625 Z M 237 88 " clip-rule="nonzero"/></clipPath></defs><g clip-path="url(#ff23d256ec)"><path fill="#ffffff" d="M 153.582031 38.636719 C 154.921875 38.417969 156.261719 38.171875 157.621094 38.152344 C 153.703125 38.757812 149.832031 39.710938 146.128906 41.140625 C 142.71875 42.457031 139.496094 44.257812 136.585938 46.472656 C 133.875 48.496094 131.449219 50.859375 128.875 53.046875 C 125.976562 55.453125 122.8125 57.515625 119.539062 59.367188 C 112.515625 63.304688 105.011719 66.316406 97.375 68.824219 C 94.082031 69.890625 90.761719 70.878906 87.40625 71.726562 C 86.910156 71.839844 86.421875 72.011719 85.914062 72.042969 C 87.828125 71.574219 89.707031 70.976562 91.597656 70.417969 C 99.601562 67.960938 107.476562 64.996094 114.910156 61.125 C 120.15625 58.382812 125.191406 55.164062 129.601562 51.199219 C 130.652344 50.289062 131.601562 49.269531 132.664062 48.375 C 138.558594 43.269531 145.9375 40.023438 153.582031 38.636719 Z M 153.582031 38.636719 " fill-opacity="1" fill-rule="nonzero"/></g><path fill="#ffffff" d="M 172.148438 39.261719 C 180.636719 38.703125 189.15625 39.363281 197.5625 40.550781 C 199.761719 40.71875 201.816406 41.5625 203.882812 42.25 C 210.371094 44.472656 216.785156 46.917969 223.003906 49.800781 C 217.695312 49.328125 212.355469 49.171875 207.023438 49.15625 C 200.652344 49.128906 194.28125 49.316406 187.914062 49.628906 C 186.402344 49.714844 184.867188 49.761719 183.371094 49.484375 C 182.179688 49.261719 181.007812 48.808594 180.074219 48.023438 C 177.542969 45.753906 175.136719 43.328125 172.398438 41.296875 C 171.925781 40.925781 171.339844 40.671875 171 40.152344 C 170.867188 39.980469 170.84375 39.699219 171.042969 39.566406 C 171.359375 39.335938 171.769531 39.304688 172.148438 39.261719 Z M 172.148438 39.261719 " fill-opacity="1" fill-rule="nonzero"/><path fill="#ffffff" d="M 158.558594 40.804688 C 160.726562 40.582031 162.945312 40.683594 165.042969 41.304688 C 167.832031 42.097656 170.347656 43.707031 172.398438 45.742188 C 174.117188 47.4375 175.515625 49.4375 176.683594 51.546875 C 168.296875 51.882812 159.910156 52.195312 151.523438 52.539062 C 150.371094 50.03125 148.882812 47.648438 146.917969 45.695312 C 146.597656 45.351562 146.148438 45.082031 146.003906 44.613281 C 145.980469 44.242188 146.390625 44.082031 146.664062 43.945312 C 148.082031 43.347656 149.539062 42.855469 151.007812 42.402344 C 153.472656 41.652344 155.992188 41.054688 158.558594 40.804688 Z M 158.558594 40.804688 " fill-opacity="1" fill-rule="nonzero"/><path fill="#ffffff" d="M 142.144531 46.039062 C 142.695312 45.765625 143.234375 45.382812 143.871094 45.359375 C 144.359375 45.410156 144.734375 45.769531 145.101562 46.0625 C 146.179688 47.03125 147.015625 48.230469 147.8125 49.433594 C 148.253906 50.117188 148.675781 50.816406 149.066406 51.535156 C 149.195312 51.792969 149.347656 52.113281 149.214844 52.402344 C 149.019531 52.703125 148.621094 52.667969 148.308594 52.675781 C 146.007812 52.644531 143.710938 52.6875 141.410156 52.753906 C 139.210938 52.851562 137.007812 52.96875 134.828125 53.324219 C 134.039062 53.460938 133.234375 53.609375 132.5 53.945312 C 134.175781 51.085938 136.792969 48.886719 139.667969 47.292969 C 140.472656 46.835938 141.3125 46.445312 142.144531 46.039062 Z M 142.144531 46.039062 " fill-opacity="1" fill-rule="nonzero"/><path fill="#ffffff" d="M 195.496094 51.050781 C 200.519531 50.929688 205.546875 50.800781 210.566406 50.566406 C 215.984375 50.382812 221.417969 50.460938 226.820312 50.960938 C 231.492188 51.367188 236.152344 51.867188 240.800781 52.480469 C 243.253906 52.808594 245.703125 53.164062 248.128906 53.648438 C 251.722656 54.347656 255.359375 55.058594 258.730469 56.535156 C 259.746094 56.984375 260.734375 57.492188 261.675781 58.082031 C 259.761719 57.347656 257.800781 56.71875 255.78125 56.332031 C 254.925781 56.15625 254.054688 56.070312 253.195312 55.902344 C 252.222656 55.820312 251.246094 55.910156 250.273438 55.898438 C 247.242188 55.921875 244.203125 56.015625 241.199219 56.425781 C 240.804688 56.488281 240.351562 56.5625 240.105469 56.910156 C 239.890625 57.253906 240.054688 57.671875 240.210938 58.007812 C 241.25 59.839844 242.1875 61.734375 243.152344 63.609375 C 243.816406 64.933594 244.503906 66.242188 245.148438 67.574219 C 242.515625 63.382812 238.886719 59.832031 234.679688 57.230469 C 233.960938 56.785156 233.226562 56.367188 232.464844 56.007812 C 231.425781 55.53125 230.300781 55.269531 229.175781 55.089844 C 227.011719 54.8125 224.878906 54.351562 222.726562 53.996094 C 212.464844 52.21875 202.0625 51.175781 191.644531 51.160156 C 192.929688 51.070312 194.210938 51.089844 195.496094 51.050781 Z M 195.496094 51.050781 " fill-opacity="1" fill-rule="nonzero"/><path fill="#ffffff" d="M 221.109375 56.742188 C 222.734375 57.082031 224.371094 57.671875 225.621094 58.804688 C 226.34375 59.445312 226.878906 60.304688 227.109375 61.246094 C 227.261719 61.863281 227.179688 62.558594 226.796875 63.078125 C 226.335938 63.71875 225.59375 64.085938 224.863281 64.324219 C 225.535156 63.8125 226.226562 63.234375 226.507812 62.410156 C 226.78125 61.636719 226.527344 60.785156 226.054688 60.148438 C 225.316406 59.140625 224.265625 58.414062 223.203125 57.785156 C 222.53125 57.390625 221.828125 57.042969 221.109375 56.742188 Z M 221.109375 56.742188 " fill-opacity="1" fill-rule="nonzero"/><path fill="#ffffff" d="M 252.355469 56.734375 C 252.808594 56.679688 253.265625 56.65625 253.71875 56.707031 C 255.863281 57.136719 258.035156 57.507812 260.117188 58.195312 C 260.726562 58.394531 261.335938 58.640625 261.835938 59.054688 C 262.5 59.578125 262.925781 60.339844 263.195312 61.128906 C 263.679688 62.539062 264.183594 63.949219 264.53125 65.402344 C 264.671875 66.023438 264.832031 66.714844 264.507812 67.308594 C 264.324219 67.6875 263.882812 67.875 263.472656 67.851562 C 259.375 67.539062 255.269531 67.378906 251.160156 67.3125 C 250.109375 67.269531 249.019531 67.410156 248.007812 67.0625 C 246.867188 66.671875 246.039062 65.730469 245.367188 64.773438 C 244.269531 63.175781 243.289062 61.5 242.375 59.792969 C 242.09375 59.214844 241.828125 58.554688 241.996094 57.90625 C 242.125 57.429688 242.632812 57.21875 243.085938 57.1875 C 246.167969 56.882812 249.269531 56.886719 252.355469 56.734375 Z M 252.355469 56.734375 " fill-opacity="1" fill-rule="nonzero"/><path fill="#ffffff" d="M 218.566406 56.839844 C 220.171875 56.714844 221.6875 57.4375 223.03125 58.238281 C 223.890625 58.761719 224.71875 59.375 225.300781 60.207031 C 225.773438 60.882812 226.015625 61.738281 225.863281 62.558594 C 225.640625 63.296875 224.96875 63.804688 224.25 64.019531 C 223.335938 64.289062 222.355469 64.25 221.429688 64.074219 C 219.234375 63.648438 217.335938 62.054688 216.445312 60.019531 C 216.167969 59.410156 216.128906 58.640625 216.570312 58.09375 C 217.070312 57.484375 217.746094 56.914062 218.566406 56.839844 Z M 218.566406 56.839844 " fill-opacity="1" fill-rule="nonzero"/><path fill="#ffffff" d="M 229.039062 56.882812 C 230.625 56.613281 232.21875 57.234375 233.507812 58.125 C 234.332031 58.691406 235.0625 59.378906 235.738281 60.113281 C 236.359375 60.75 236.753906 61.578125 236.96875 62.429688 C 237.121094 63.117188 237.132812 63.914062 236.679688 64.496094 C 236.148438 65.167969 235.230469 65.382812 234.410156 65.363281 C 232.214844 65.15625 230.128906 63.96875 228.832031 62.183594 C 228.359375 61.542969 227.980469 60.832031 227.695312 60.09375 C 227.464844 59.410156 227.398438 58.640625 227.6875 57.964844 C 227.921875 57.410156 228.445312 56.992188 229.039062 56.882812 Z M 229.039062 56.882812 " fill-opacity="1" fill-rule="nonzero"/><path fill="#ffffff" d="M 232.722656 57.121094 C 234.121094 57.882812 235.519531 58.679688 236.722656 59.734375 C 237.328125 60.28125 237.910156 60.898438 238.226562 61.660156 C 238.476562 62.230469 238.503906 62.917969 238.21875 63.480469 C 238 63.941406 237.617188 64.292969 237.222656 64.597656 C 237.632812 63.851562 237.734375 62.941406 237.460938 62.128906 C 237.042969 60.832031 236.085938 59.796875 235.09375 58.898438 C 234.359375 58.230469 233.535156 57.6875 232.722656 57.121094 Z M 232.722656 57.121094 " fill-opacity="1" fill-rule="nonzero"/><path fill="#ffffff" d="M 263.605469 60.09375 C 263.644531 60.074219 263.726562 60.03125 263.765625 60.007812 C 264.15625 60.089844 264.457031 60.386719 264.734375 60.652344 C 265.546875 61.511719 266.113281 62.570312 266.589844 63.644531 C 266.90625 64.394531 267.257812 65.144531 267.371094 65.957031 C 267.40625 66.308594 267.4375 66.722656 267.179688 66.996094 C 267.015625 67.101562 266.839844 66.972656 266.71875 66.867188 C 265.660156 65.828125 265.136719 64.402344 264.46875 63.109375 C 264.121094 62.359375 263.738281 61.609375 263.542969 60.800781 C 263.507812 60.570312 263.4375 60.289062 263.605469 60.09375 Z M 263.605469 60.09375 " fill-opacity="1" fill-rule="nonzero"/><path fill="#ffffff" d="M 192.796875 62.65625 C 194.574219 62.339844 196.453125 62.355469 198.152344 63.015625 C 199.644531 63.578125 200.933594 64.597656 201.925781 65.832031 C 203.167969 67.371094 203.992188 69.207031 204.542969 71.09375 C 205.132812 73.167969 205.417969 75.328125 205.386719 77.484375 C 205.277344 79.402344 205.023438 81.324219 204.515625 83.179688 C 204.03125 84.921875 203.316406 86.625 202.21875 88.070312 C 201.253906 89.351562 199.96875 90.402344 198.484375 91.019531 C 196.800781 91.730469 194.921875 91.902344 193.117188 91.664062 C 194.6875 91.515625 196.242188 91.007812 197.511719 90.054688 C 198.953125 88.992188 199.988281 87.46875 200.699219 85.84375 C 201.617188 83.730469 202.078125 81.449219 202.34375 79.171875 C 202.632812 76.953125 202.589844 74.699219 202.3125 72.484375 C 202.070312 70.65625 201.625 68.828125 200.773438 67.183594 C 200.042969 65.769531 198.96875 64.503906 197.582031 63.695312 C 196.148438 62.839844 194.445312 62.550781 192.796875 62.65625 Z M 192.796875 62.65625 " fill-opacity="1" fill-rule="nonzero"/><path fill="#ffffff" d="M 133.433594 67.59375 C 134.257812 69.003906 135.144531 70.40625 136.304688 71.570312 C 136.980469 72.238281 137.761719 72.8125 138.65625 73.152344 C 139.59375 73.523438 140.609375 73.617188 141.605469 73.6875 C 153.6875 74.421875 165.773438 75.109375 177.859375 75.8125 C 178.589844 75.882812 179.332031 75.84375 180.058594 75.972656 C 174.335938 75.847656 168.609375 75.792969 162.882812 75.6875 C 155.527344 75.585938 148.175781 75.460938 140.824219 75.355469 C 139.871094 75.3125 138.902344 75.402344 137.964844 75.203125 C 136.558594 74.886719 135.464844 73.71875 135.027344 72.375 C 134.503906 70.78125 133.933594 69.195312 133.433594 67.59375 Z M 133.433594 67.59375 " fill-opacity="1" fill-rule="nonzero"/><path fill="#ffffff" d="M 142.101562 77.59375 C 142.527344 77.542969 142.949219 77.441406 143.378906 77.445312 C 151.359375 77.757812 159.339844 78.046875 167.324219 78.28125 C 170.214844 78.351562 173.105469 78.449219 175.996094 78.460938 C 176.320312 78.464844 176.640625 78.496094 176.964844 78.539062 C 175.816406 78.507812 174.671875 78.636719 173.527344 78.652344 C 166.273438 78.945312 159.011719 78.964844 151.753906 78.933594 C 146.035156 78.902344 140.316406 78.804688 134.597656 78.667969 C 137.097656 78.289062 139.601562 77.953125 142.101562 77.59375 Z M 142.101562 77.59375 " fill-opacity="1" fill-rule="nonzero"/><g clip-path="url(#774fbcd75e)"><path fill="#ffffff" d="M 209.167969 78.472656 C 209.238281 78.300781 209.429688 78.328125 209.578125 78.328125 C 213.859375 78.535156 218.144531 78.71875 222.429688 78.617188 C 223.101562 79.9375 224.246094 81.023438 225.644531 81.535156 C 226.550781 81.878906 227.527344 82.019531 228.496094 81.976562 C 236.234375 82.464844 243.988281 82.867188 251.746094 82.757812 C 254.507812 82.652344 257.265625 82.488281 260.019531 82.234375 C 262.15625 82.023438 264.296875 81.769531 266.402344 81.328125 C 267.308594 81.125 268.214844 80.90625 269.074219 80.542969 C 269.519531 80.347656 269.988281 80.128906 270.261719 79.703125 C 270.703125 80.269531 270.902344 80.976562 271.105469 81.65625 C 271.289062 82.300781 271.167969 83.035156 270.722656 83.546875 C 270.082031 84.296875 269.136719 84.675781 268.222656 84.984375 C 266.324219 85.585938 264.335938 85.847656 262.359375 86.078125 C 257.234375 86.617188 252.078125 86.769531 246.929688 86.945312 C 236.28125 87.292969 225.613281 86.976562 215 86.078125 C 213.289062 85.925781 211.578125 85.765625 209.871094 85.566406 C 209.738281 85.527344 209.519531 85.546875 209.496094 85.367188 C 209.503906 83.066406 209.378906 80.761719 209.167969 78.472656 Z M 209.167969 78.472656 " fill-opacity="1" fill-rule="nonzero"/></g><path fill="#ffffff" d="M 201.703125 89.984375 C 204.589844 87.5 206.070312 83.679688 206.230469 79.929688 C 206.488281 80.964844 206.476562 82.042969 206.542969 83.101562 C 206.578125 84.507812 206.625 85.917969 206.542969 87.328125 C 206.601562 87.617188 206.964844 87.695312 207.214844 87.75 C 208.445312 87.9375 209.691406 87.921875 210.929688 88.015625 C 210.578125 88.597656 210.054688 89.042969 209.578125 89.519531 C 208.84375 90.222656 208.078125 90.894531 207.292969 91.542969 C 206.390625 92.277344 205.15625 92.226562 204.066406 92.363281 C 201.71875 92.53125 199.351562 92.707031 197.003906 92.488281 C 198.71875 91.988281 200.347656 91.160156 201.703125 89.984375 Z M 201.703125 89.984375 " fill-opacity="1" fill-rule="nonzero"/><path fill="#ffffff" d="M 116.082031 81.863281 C 118.257812 82.035156 120.421875 82.3125 122.59375 82.511719 C 132.636719 83.523438 142.683594 84.492188 152.742188 85.367188 C 159.46875 85.941406 166.195312 86.496094 172.9375 86.882812 C 174.589844 86.949219 176.242188 87.074219 177.898438 87.085938 C 175.226562 87.125 172.554688 87.054688 169.882812 87.03125 C 163.117188 86.976562 156.355469 86.921875 149.589844 86.894531 C 149.101562 86.882812 148.617188 86.910156 148.136719 86.875 C 137.449219 85.210938 126.769531 83.515625 116.082031 81.863281 Z M 116.082031 81.863281 " fill-opacity="1" fill-rule="nonzero"/><g clip-path="url(#26d7a724b9)"><path fill="#ffffff" d="M 252.730469 88.554688 C 254.824219 88.496094 256.917969 88.402344 259.003906 88.222656 C 258.644531 88.878906 258.03125 89.339844 257.472656 89.8125 C 254.878906 91.835938 251.703125 93.199219 248.398438 93.390625 C 246.289062 93.511719 244.15625 93.097656 242.246094 92.191406 C 240.40625 91.335938 238.769531 90.074219 237.367188 88.613281 C 242.488281 88.679688 247.609375 88.6875 252.730469 88.554688 Z M 252.730469 88.554688 " fill-opacity="1" fill-rule="nonzero"/></g><g fill="#ffffff" fill-opacity="1"><g transform="translate(93.91034, 136.866719)"><g><path d="M 5.34375 0.296875 C 3.726562 0.296875 2.921875 -0.535156 2.921875 -2.203125 L 2.921875 -24.265625 C 2.921875 -25.898438 3.738281 -26.71875 5.375 -26.71875 L 14.515625 -26.71875 C 17.453125 -26.71875 19.710938 -25.984375 21.296875 -24.515625 C 22.890625 -23.054688 23.6875 -21.015625 23.6875 -18.390625 C 23.6875 -15.753906 22.890625 -13.695312 21.296875 -12.21875 C 19.710938 -10.738281 17.453125 -10 14.515625 -10 L 7.765625 -10 L 7.765625 -2.203125 C 7.765625 -0.535156 6.957031 0.296875 5.34375 0.296875 Z M 7.765625 -13.828125 L 13.765625 -13.828125 C 17.242188 -13.828125 18.984375 -15.347656 18.984375 -18.390625 C 18.984375 -21.390625 17.242188 -22.890625 13.765625 -22.890625 L 7.765625 -22.890625 Z M 7.765625 -13.828125 "/></g></g></g><g fill="#ffffff" fill-opacity="1"><g transform="translate(124.230421, 136.866719)"><g><path d="M 5.34375 0.296875 C 3.726562 0.296875 2.921875 -0.535156 2.921875 -2.203125 L 2.921875 -24.53125 C 2.921875 -26.195312 3.726562 -27.03125 5.34375 -27.03125 C 6.957031 -27.03125 7.765625 -26.195312 7.765625 -24.53125 L 7.765625 -15.578125 L 21.53125 -15.578125 L 21.53125 -24.53125 C 21.53125 -26.195312 22.335938 -27.03125 23.953125 -27.03125 C 25.566406 -27.03125 26.375 -26.195312 26.375 -24.53125 L 26.375 -2.203125 C 26.375 -0.535156 25.566406 0.296875 23.953125 0.296875 C 22.335938 0.296875 21.53125 -0.535156 21.53125 -2.203125 L 21.53125 -11.53125 L 7.765625 -11.53125 L 7.765625 -2.203125 C 7.765625 -0.535156 6.957031 0.296875 5.34375 0.296875 Z M 5.34375 0.296875 "/></g></g></g><g fill="#ffffff" fill-opacity="1"><g transform="translate(159.136235, 136.866719)"><g><path d="M 5.5 0 C 3.78125 0 2.921875 -0.859375 2.921875 -2.578125 L 2.921875 -24.140625 C 2.921875 -25.859375 3.78125 -26.71875 5.5 -26.71875 L 19.03125 -26.71875 C 20.34375 -26.71875 21 -26.085938 21 -24.828125 C 21 -23.515625 20.34375 -22.859375 19.03125 -22.859375 L 7.578125 -22.859375 L 7.578125 -15.5 L 18.1875 -15.5 C 19.507812 -15.5 20.171875 -14.859375 20.171875 -13.578125 C 20.171875 -12.285156 19.507812 -11.640625 18.1875 -11.640625 L 7.578125 -11.640625 L 7.578125 -3.859375 L 19.03125 -3.859375 C 20.34375 -3.859375 21 -3.21875 21 -1.9375 C 21 -0.644531 20.34375 0 19.03125 0 Z M 5.5 0 "/></g></g></g><g fill="#ffffff" fill-opacity="1"><g transform="translate(187.371886, 136.866719)"><g><path d="M 5.1875 0.296875 C 3.675781 0.296875 2.921875 -0.484375 2.921875 -2.046875 L 2.921875 -24.59375 C 2.921875 -25.382812 3.113281 -25.988281 3.5 -26.40625 C 3.894531 -26.820312 4.410156 -27.03125 5.046875 -27.03125 C 5.617188 -27.03125 6.050781 -26.921875 6.34375 -26.703125 C 6.632812 -26.484375 6.984375 -26.125 7.390625 -25.625 L 20.921875 -8.078125 L 20.921875 -24.71875 C 20.921875 -26.257812 21.679688 -27.03125 23.203125 -27.03125 C 24.691406 -27.03125 25.4375 -26.257812 25.4375 -24.71875 L 25.4375 -1.96875 C 25.4375 -1.257812 25.257812 -0.703125 24.90625 -0.296875 C 24.550781 0.0976562 24.070312 0.296875 23.46875 0.296875 C 22.882812 0.296875 22.421875 0.1875 22.078125 -0.03125 C 21.734375 -0.257812 21.363281 -0.628906 20.96875 -1.140625 L 7.421875 -18.71875 L 7.421875 -2.046875 C 7.421875 -0.484375 6.675781 0.296875 5.1875 0.296875 Z M 5.1875 0.296875 "/></g></g></g><g fill="#ffffff" fill-opacity="1"><g transform="translate(221.330238, 136.866719)"><g><path d="M 5.34375 0.296875 C 3.726562 0.296875 2.921875 -0.535156 2.921875 -2.203125 L 2.921875 -24.53125 C 2.921875 -26.195312 3.726562 -27.03125 5.34375 -27.03125 C 6.957031 -27.03125 7.765625 -26.195312 7.765625 -24.53125 L 7.765625 -2.203125 C 7.765625 -0.535156 6.957031 0.296875 5.34375 0.296875 Z M 5.34375 0.296875 "/></g></g></g><g fill="#ffffff" fill-opacity="1"><g transform="translate(237.62781, 136.866719)"><g><path d="M 3.828125 0.296875 C 3.191406 0.296875 2.671875 0.128906 2.265625 -0.203125 C 1.867188 -0.546875 1.640625 -0.976562 1.578125 -1.5 C 1.515625 -2.019531 1.679688 -2.546875 2.078125 -3.078125 L 9.96875 -13.609375 L 2.5 -23.609375 C 2.09375 -24.171875 1.914062 -24.707031 1.96875 -25.21875 C 2.019531 -25.738281 2.25 -26.171875 2.65625 -26.515625 C 3.0625 -26.859375 3.566406 -27.03125 4.171875 -27.03125 C 5.109375 -27.03125 5.953125 -26.507812 6.703125 -25.46875 L 12.734375 -17.140625 L 18.765625 -25.46875 C 19.523438 -26.507812 20.382812 -27.03125 21.34375 -27.03125 C 21.96875 -27.03125 22.484375 -26.863281 22.890625 -26.53125 C 23.296875 -26.207031 23.523438 -25.785156 23.578125 -25.265625 C 23.628906 -24.742188 23.441406 -24.191406 23.015625 -23.609375 L 15.546875 -13.609375 L 23.390625 -3.078125 C 23.796875 -2.546875 23.972656 -2.019531 23.921875 -1.5 C 23.867188 -0.976562 23.640625 -0.546875 23.234375 -0.203125 C 22.828125 0.128906 22.296875 0.296875 21.640625 0.296875 C 20.734375 0.296875 19.890625 -0.226562 19.109375 -1.28125 L 12.734375 -10 L 6.40625 -1.28125 C 5.625 -0.226562 4.765625 0.296875 3.828125 0.296875 Z M 3.828125 0.296875 "/></g></g></g><g fill="#ffffff" fill-opacity="1"><g transform="translate(122.937968, 159.642377)"><g><path d="M 0.84375 -4.734375 L 0.84375 -5.5 L 5.25 -5.5 L 5.25 -4.734375 Z M 0.84375 -4.734375 "/></g></g></g><g fill="#ffffff" fill-opacity="1"><g transform="translate(129.03543, 159.642377)"><g><path d="M 10.0625 -9.640625 C 10.0625 -8.335938 9.613281 -7.335938 8.71875 -6.640625 C 7.832031 -5.941406 6.578125 -5.59375 4.953125 -5.59375 L 2.859375 -5.59375 L 2.859375 0 L 1.921875 0 L 1.921875 -13.53125 L 5.234375 -13.53125 C 8.453125 -13.53125 10.0625 -12.234375 10.0625 -9.640625 Z M 2.859375 -6.40625 L 4.71875 -6.40625 C 6.238281 -6.40625 7.335938 -6.65625 8.015625 -7.15625 C 8.703125 -7.65625 9.046875 -8.472656 9.046875 -9.609375 C 9.046875 -10.648438 8.722656 -11.421875 8.078125 -11.921875 C 7.429688 -12.421875 6.4375 -12.671875 5.09375 -12.671875 L 2.859375 -12.671875 Z M 2.859375 -6.40625 "/></g></g></g><g fill="#ffffff" fill-opacity="1"><g transform="translate(140.120033, 159.642377)"><g><path d="M 2.59375 0 L 1.6875 0 L 1.6875 -10.0625 L 2.59375 -10.0625 Z M 1.5625 -12.859375 C 1.5625 -13.453125 1.753906 -13.75 2.140625 -13.75 C 2.328125 -13.75 2.472656 -13.671875 2.578125 -13.515625 C 2.691406 -13.359375 2.75 -13.140625 2.75 -12.859375 C 2.75 -12.578125 2.691406 -12.351562 2.578125 -12.1875 C 2.472656 -12.03125 2.328125 -11.953125 2.140625 -11.953125 C 1.753906 -11.953125 1.5625 -12.253906 1.5625 -12.859375 Z M 1.5625 -12.859375 "/></g></g></g><g fill="#ffffff" fill-opacity="1"><g transform="translate(144.403988, 159.642377)"><g><path d="M 5.75 0.1875 C 4.28125 0.1875 3.132812 -0.257812 2.3125 -1.15625 C 1.5 -2.0625 1.09375 -3.328125 1.09375 -4.953125 C 1.09375 -6.554688 1.488281 -7.835938 2.28125 -8.796875 C 3.070312 -9.765625 4.140625 -10.25 5.484375 -10.25 C 6.660156 -10.25 7.59375 -9.835938 8.28125 -9.015625 C 8.96875 -8.191406 9.3125 -7.066406 9.3125 -5.640625 L 9.3125 -4.90625 L 2.0625 -4.90625 C 2.070312 -3.519531 2.394531 -2.460938 3.03125 -1.734375 C 3.664062 -1.003906 4.570312 -0.640625 5.75 -0.640625 C 6.320312 -0.640625 6.820312 -0.679688 7.25 -0.765625 C 7.6875 -0.847656 8.238281 -1.019531 8.90625 -1.28125 L 8.90625 -0.453125 C 8.34375 -0.203125 7.816406 -0.0351562 7.328125 0.046875 C 6.847656 0.140625 6.320312 0.1875 5.75 0.1875 Z M 5.484375 -9.4375 C 4.515625 -9.4375 3.734375 -9.117188 3.140625 -8.484375 C 2.554688 -7.847656 2.21875 -6.925781 2.125 -5.71875 L 8.34375 -5.71875 C 8.34375 -6.882812 8.085938 -7.796875 7.578125 -8.453125 C 7.078125 -9.109375 6.378906 -9.4375 5.484375 -9.4375 Z M 6.34375 -11.484375 L 5.703125 -11.484375 C 5.109375 -11.972656 4.523438 -12.5 3.953125 -13.0625 C 3.378906 -13.632812 2.992188 -14.066406 2.796875 -14.359375 L 2.796875 -14.515625 L 4.109375 -14.515625 C 4.265625 -14.222656 4.566406 -13.785156 5.015625 -13.203125 C 5.460938 -12.628906 5.90625 -12.109375 6.34375 -11.640625 Z M 6.34375 -11.484375 "/></g></g></g><g fill="#ffffff" fill-opacity="1"><g transform="translate(154.803899, 159.642377)"><g><path d="M 5.703125 0.1875 C 4.265625 0.1875 3.132812 -0.265625 2.3125 -1.171875 C 1.5 -2.078125 1.09375 -3.34375 1.09375 -4.96875 C 1.09375 -6.632812 1.515625 -7.929688 2.359375 -8.859375 C 3.210938 -9.785156 4.375 -10.25 5.84375 -10.25 C 6.707031 -10.25 7.539062 -10.097656 8.34375 -9.796875 L 8.09375 -8.984375 C 7.21875 -9.273438 6.460938 -9.421875 5.828125 -9.421875 C 4.585938 -9.421875 3.648438 -9.039062 3.015625 -8.28125 C 2.378906 -7.519531 2.0625 -6.421875 2.0625 -4.984375 C 2.0625 -3.628906 2.378906 -2.566406 3.015625 -1.796875 C 3.648438 -1.023438 4.539062 -0.640625 5.6875 -0.640625 C 6.59375 -0.640625 7.441406 -0.804688 8.234375 -1.140625 L 8.234375 -0.28125 C 7.585938 0.03125 6.742188 0.1875 5.703125 0.1875 Z M 5.703125 0.1875 "/></g></g></g><g fill="#ffffff" fill-opacity="1"><g transform="translate(163.806675, 159.642377)"><g><path d="M 5.75 0.1875 C 4.28125 0.1875 3.132812 -0.257812 2.3125 -1.15625 C 1.5 -2.0625 1.09375 -3.328125 1.09375 -4.953125 C 1.09375 -6.554688 1.488281 -7.835938 2.28125 -8.796875 C 3.070312 -9.765625 4.140625 -10.25 5.484375 -10.25 C 6.660156 -10.25 7.59375 -9.835938 8.28125 -9.015625 C 8.96875 -8.191406 9.3125 -7.066406 9.3125 -5.640625 L 9.3125 -4.90625 L 2.0625 -4.90625 C 2.070312 -3.519531 2.394531 -2.460938 3.03125 -1.734375 C 3.664062 -1.003906 4.570312 -0.640625 5.75 -0.640625 C 6.320312 -0.640625 6.820312 -0.679688 7.25 -0.765625 C 7.6875 -0.847656 8.238281 -1.019531 8.90625 -1.28125 L 8.90625 -0.453125 C 8.34375 -0.203125 7.816406 -0.0351562 7.328125 0.046875 C 6.847656 0.140625 6.320312 0.1875 5.75 0.1875 Z M 5.484375 -9.4375 C 4.515625 -9.4375 3.734375 -9.117188 3.140625 -8.484375 C 2.554688 -7.847656 2.21875 -6.925781 2.125 -5.71875 L 8.34375 -5.71875 C 8.34375 -6.882812 8.085938 -7.796875 7.578125 -8.453125 C 7.078125 -9.109375 6.378906 -9.4375 5.484375 -9.4375 Z M 5.484375 -9.4375 "/></g></g></g><g fill="#ffffff" fill-opacity="1"><g transform="translate(174.206586, 159.642377)"><g><path d="M 7.921875 -2.625 C 7.921875 -1.71875 7.578125 -1.019531 6.890625 -0.53125 C 6.210938 -0.0507812 5.242188 0.1875 3.984375 0.1875 C 2.640625 0.1875 1.570312 -0.0195312 0.78125 -0.4375 L 0.78125 -1.421875 C 1.789062 -0.921875 2.859375 -0.671875 3.984375 -0.671875 C 4.972656 -0.671875 5.722656 -0.832031 6.234375 -1.15625 C 6.753906 -1.488281 7.015625 -1.929688 7.015625 -2.484375 C 7.015625 -2.984375 6.804688 -3.40625 6.390625 -3.75 C 5.984375 -4.101562 5.3125 -4.445312 4.375 -4.78125 C 3.375 -5.144531 2.664062 -5.457031 2.25 -5.71875 C 1.84375 -5.976562 1.535156 -6.269531 1.328125 -6.59375 C 1.128906 -6.925781 1.03125 -7.332031 1.03125 -7.8125 C 1.03125 -8.5625 1.34375 -9.15625 1.96875 -9.59375 C 2.601562 -10.03125 3.488281 -10.25 4.625 -10.25 C 5.707031 -10.25 6.738281 -10.046875 7.71875 -9.640625 L 7.375 -8.8125 C 6.382812 -9.21875 5.46875 -9.421875 4.625 -9.421875 C 3.800781 -9.421875 3.148438 -9.285156 2.671875 -9.015625 C 2.191406 -8.742188 1.953125 -8.367188 1.953125 -7.890625 C 1.953125 -7.359375 2.140625 -6.9375 2.515625 -6.625 C 2.890625 -6.3125 3.617188 -5.960938 4.703125 -5.578125 C 5.609375 -5.242188 6.265625 -4.945312 6.671875 -4.6875 C 7.085938 -4.425781 7.398438 -4.128906 7.609375 -3.796875 C 7.816406 -3.460938 7.921875 -3.070312 7.921875 -2.625 Z M 7.921875 -2.625 "/></g></g></g><g fill="#ffffff" fill-opacity="1"><g transform="translate(183.033556, 159.642377)"><g/></g></g><g fill="#ffffff" fill-opacity="1"><g transform="translate(187.955934, 159.642377)"><g><path d="M 8.4375 -4.78125 L 2.9375 -4.78125 L 1.046875 0 L 0 0 L 5.4375 -13.578125 L 6.046875 -13.578125 L 11.375 0 L 10.3125 0 Z M 3.28125 -5.625 L 8.109375 -5.625 L 6.28125 -10.5 C 6.125 -10.882812 5.9375 -11.414062 5.71875 -12.09375 C 5.550781 -11.5 5.367188 -10.960938 5.171875 -10.484375 Z M 3.28125 -5.625 "/></g></g></g><g fill="#ffffff" fill-opacity="1"><g transform="translate(199.327373, 159.642377)"><g><path d="M 2.484375 -10.0625 L 2.484375 -3.546875 C 2.484375 -2.535156 2.691406 -1.796875 3.109375 -1.328125 C 3.535156 -0.867188 4.195312 -0.640625 5.09375 -0.640625 C 6.289062 -0.640625 7.171875 -0.941406 7.734375 -1.546875 C 8.304688 -2.160156 8.59375 -3.144531 8.59375 -4.5 L 8.59375 -10.0625 L 9.5 -10.0625 L 9.5 0 L 8.71875 0 L 8.546875 -1.390625 L 8.5 -1.390625 C 7.84375 -0.335938 6.675781 0.1875 5 0.1875 C 2.71875 0.1875 1.578125 -1.035156 1.578125 -3.484375 L 1.578125 -10.0625 Z M 2.484375 -10.0625 "/></g></g></g><g fill="#ffffff" fill-opacity="1"><g transform="translate(210.504501, 159.642377)"><g><path d="M 4.34375 -0.625 C 4.914062 -0.625 5.421875 -0.675781 5.859375 -0.78125 L 5.859375 -0.03125 C 5.410156 0.113281 4.898438 0.1875 4.328125 0.1875 C 3.429688 0.1875 2.769531 -0.046875 2.34375 -0.515625 C 1.925781 -0.992188 1.71875 -1.742188 1.71875 -2.765625 L 1.71875 -9.265625 L 0.234375 -9.265625 L 0.234375 -9.796875 L 1.71875 -10.21875 L 2.1875 -12.5 L 2.65625 -12.5 L 2.65625 -10.0625 L 5.609375 -10.0625 L 5.609375 -9.265625 L 2.65625 -9.265625 L 2.65625 -2.890625 C 2.65625 -2.117188 2.789062 -1.546875 3.0625 -1.171875 C 3.332031 -0.804688 3.757812 -0.625 4.34375 -0.625 Z M 4.34375 -0.625 "/></g></g></g><g fill="#ffffff" fill-opacity="1"><g transform="translate(216.851778, 159.642377)"><g><path d="M 10 -5.046875 C 10 -3.398438 9.597656 -2.113281 8.796875 -1.1875 C 8.003906 -0.269531 6.910156 0.1875 5.515625 0.1875 C 4.628906 0.1875 3.847656 -0.0234375 3.171875 -0.453125 C 2.503906 -0.878906 1.988281 -1.488281 1.625 -2.28125 C 1.269531 -3.082031 1.09375 -4.003906 1.09375 -5.046875 C 1.09375 -6.679688 1.488281 -7.957031 2.28125 -8.875 C 3.082031 -9.789062 4.179688 -10.25 5.578125 -10.25 C 6.953125 -10.25 8.03125 -9.785156 8.8125 -8.859375 C 9.601562 -7.929688 10 -6.660156 10 -5.046875 Z M 2.0625 -5.046875 C 2.0625 -3.660156 2.363281 -2.578125 2.96875 -1.796875 C 3.582031 -1.023438 4.441406 -0.640625 5.546875 -0.640625 C 6.660156 -0.640625 7.519531 -1.023438 8.125 -1.796875 C 8.738281 -2.578125 9.046875 -3.660156 9.046875 -5.046875 C 9.046875 -6.429688 8.738281 -7.503906 8.125 -8.265625 C 7.507812 -9.035156 6.644531 -9.421875 5.53125 -9.421875 C 4.425781 -9.421875 3.570312 -9.039062 2.96875 -8.28125 C 2.363281 -7.519531 2.0625 -6.441406 2.0625 -5.046875 Z M 2.0625 -5.046875 "/></g></g></g><g fill="#ffffff" fill-opacity="1"><g transform="translate(227.954886, 159.642377)"><g><path d="M 0.84375 -4.734375 L 0.84375 -5.5 L 5.25 -5.5 L 5.25 -4.734375 Z M 0.84375 -4.734375 "/></g></g></g></svg>
